<svg width="132" height="132" viewBox="0 0 132 132" fill="none" xmlns="http://www.w3.org/2000/svg">
<path d="M15.25 131.25C11.2625 131.25 7.84776 129.829 5.00576 126.987C2.16376 124.145 0.745179 120.733 0.750012 116.75V15.25C0.750012 11.2625 2.17101 7.84775 5.01301 5.00575C7.85501 2.16375 11.2673 0.745164 15.25 0.749997H116.75C120.738 0.749997 124.152 2.171 126.994 5.013C129.836 7.855 131.255 11.2673 131.25 15.25V116.75C131.25 120.737 129.829 124.152 126.987 126.994C124.145 129.836 120.733 131.255 116.75 131.25H15.25ZM22.5 102.25H109.5L82.3125 66L60.5625 95L44.25 73.25L22.5 102.25Z" fill="#2094FD"/>
</svg>
