<svg xmlns="http://www.w3.org/2000/svg" version="1.1" xmlns:xlink="http://www.w3.org/1999/xlink" xmlns:svgjs="http://svgjs.dev/svgjs" viewBox="0 0 800 800" opacity="0.1"><defs><filter id="bbburst-blur-1" x="-100%" y="-100%" width="400%" height="400%"><feGaussianBlur in="SourceGraphic" stdDeviation="1"></feGaussianBlur></filter><filter id="bbburst-blur-2" x="-100%" y="-100%" width="400%" height="400%"><feGaussianBlur in="SourceGraphic" stdDeviation="2"></feGaussianBlur></filter><filter id="bbburst-blur-3" x="-100%" y="-100%" width="400%" height="400%"><feGaussianBlur in="SourceGraphic" stdDeviation="4"></feGaussianBlur></filter><filter id="bbburst-blur-4" x="-100%" y="-100%" width="400%" height="400%"><feGaussianBlur in="SourceGraphic" stdDeviation="12"></feGaussianBlur></filter><symbol id="bbburst-shape-1" viewBox="0 0 194 167"><path d="m97 0 96.129 166.5H.871L97 0Z"></path></symbol><symbol id="bbburst-shape-8" viewBox="0 0 87 168"><path d="m12 12 31.2546 18.0749c16.4102 9.4902 20.014 31.6325 7.4603 45.8369L36.3296 92.1884c-12.5684 14.2206-8.9394 36.3916 7.5068 45.8636L75 156" stroke-width="14" stroke-linecap="round" stroke-linejoin="round"></path></symbol><symbol id="bbburst-shape-10" viewBox="0 0 145 145"><circle cx="72.5" cy="72.5" r="61.5" fill="none" stroke-width="22"></circle></symbol><symbol id="bbburst-shape-13" viewBox="0 0 159 159"><path stroke-width="22" d="M11 11h137v137H11z"></path></symbol><symbol id="bbburst-shape-14" viewBox="0 0 185 109"><path d="M168 16.5C168 58.1975 134.197 92 92.5 92 50.8025 92 17 58.1975 17 16.5" stroke-width="33" stroke-linecap="round"></path></symbol></defs><use xlink:href="#bbburst-shape-1" width="31.155606077702597" opacity="0.2732736050803366" transform="matrix(1.0330367286278006,-0.7038004811777068,0.7038004811777068,1.0330367286278006,257.52480506675806,285.69271935930226)" fill="#2c2891" filter="url(#bbburst-blur-3)"></use><use xlink:href="#bbburst-shape-10" width="25.254346368431616" opacity="0.5189039563271731" transform="matrix(0.9983784301619448,0.05692547924585783,-0.05692547924585783,0.9983784301619448,398.5378626430254,216.1106676679113)" fill="none" stroke="#ffbd9b" filter="url(#bbburst-blur-2)"></use><use xlink:href="#bbburst-shape-13" width="15.222762431745434" opacity="0.9389747902931529" transform="matrix(0.9936041310740584,-0.11291957630351518,0.11291957630351518,0.9936041310740584,327.41650529798125,22.39112032150257)" fill="none" stroke="#ffa6d5"></use><use xlink:href="#bbburst-shape-8" width="55.286298037916126" opacity="0.2184420901567562" transform="matrix(1.028692736753545,-0.7101346726857534,0.7101346726857534,1.028692736753545,-256.52608632338644,-64.87363066523324)" fill="none" stroke="#2c2891" filter="url(#bbburst-blur-3)"></use><use xlink:href="#bbburst-shape-8" width="45.98897818509836" opacity="0.20290037121043114" transform="matrix(1.2322738561603712,-0.20976449514550555,0.20976449514550555,1.2322738561603712,410.8139579661402,-425.01248859053607)" fill="none" stroke="#ffbd9b" filter="url(#bbburst-blur-3)"></use><use xlink:href="#bbburst-shape-10" width="32.18025359332334" opacity="0.45703835833590734" transform="matrix(0.9245784152430236,-0.380991803148964,0.380991803148964,0.9245784152430236,196.10987307167744,-205.274529285756)" fill="none" stroke="#ffbd9b" filter="url(#bbburst-blur-2)"></use><use xlink:href="#bbburst-shape-8" width="20.643490833314385" opacity="0.7765190331570322" transform="matrix(0.9562825486992651,0.2924443315457453,-0.2924443315457453,0.9562825486992651,501.86627115618666,114.89822131761895)" fill="none" stroke="#00a19d" filter="url(#bbburst-blur-1)"></use><use xlink:href="#bbburst-shape-8" width="37.194313694120446" opacity="0.08833816860453136" transform="matrix(1.700729849248982,-0.4123323657846124,0.4123323657846124,1.700729849248982,-155.42774489524402,-73.83132574102979)" fill="none" stroke="#ffa6d5" filter="url(#bbburst-blur-4)"></use><use xlink:href="#bbburst-shape-14" width="34.49003197418725" opacity="0.6057224384364712" transform="matrix(0.9883833209236231,-0.15198161375636948,0.15198161375636948,0.9883833209236231,433.1264060787003,-131.1356741993863)" fill="none" stroke="#ffa6d5" filter="url(#bbburst-blur-1)"></use><use xlink:href="#bbburst-shape-10" width="25.354237148378115" opacity="0.6445299677657099" transform="matrix(0.9993947171915966,-0.03478791815456405,0.03478791815456405,0.9993947171915966,533.06585370772,10.6541072408113)" fill="none" stroke="#ff5c58" filter="url(#bbburst-blur-1)"></use><use xlink:href="#bbburst-shape-14" width="39.92514174479061" opacity="0.40073384905319487" transform="matrix(0.9306004164568247,0.3660366988300277,-0.3660366988300277,0.9306004164568247,598.9281146250087,280.6281865667811)" fill="none" stroke="#ff5c58" filter="url(#bbburst-blur-2)"></use><use xlink:href="#bbburst-shape-8" width="39.92015898816137" opacity="0.31263297564277903" transform="matrix(0.8917833445020452,0.875912362322137,-0.875912362322137,0.8917833445020452,1000.5397440242841,-128.68071396931447)" fill="none" stroke="#00a19d" filter="url(#bbburst-blur-3)"></use><use xlink:href="#bbburst-shape-13" width="24.811154222846675" opacity="0.618518222515337" transform="matrix(0.7180391747216407,0.6960026893375234,-0.6960026893375234,0.7180391747216407,772.7414305078441,241.29710227799262)" fill="none" stroke="#ffa6d5" filter="url(#bbburst-blur-1)"></use><use xlink:href="#bbburst-shape-8" width="36.353110484199775" opacity="0.5749583334042305" transform="matrix(0.996990799376185,0.0775199713572936,-0.0775199713572936,0.996990799376185,332.45479516453526,-173.74076267360437)" fill="none" stroke="#2c2891" filter="url(#bbburst-blur-1)"></use><use xlink:href="#bbburst-shape-1" width="28.05297443587321" opacity="0.5696140060915789" transform="matrix(0.8769426817184056,-0.48059497810581747,0.48059497810581747,0.8769426817184056,15.154296121548583,-14.662055387407577)" fill="#ffbd9b" filter="url(#bbburst-blur-1)"></use><use xlink:href="#bbburst-shape-10" width="16.60495263319116" opacity="0.8568427209509609" transform="matrix(0.9648697004434454,-0.2627288738722407,0.2627288738722407,0.9648697004434454,309.96093560564793,-43.91738239928611)" fill="none" stroke="#ffbd9b"></use><use xlink:href="#bbburst-shape-1" width="40.309349344793006" opacity="0.2886249866337286" transform="matrix(1.1776369178030959,-0.41913159010891077,0.41913159010891077,1.1776369178030959,-59.30097890977328,112.63009780705488)" fill="#ffbd9b" filter="url(#bbburst-blur-3)"></use><use xlink:href="#bbburst-shape-14" width="34.15382205445937" opacity="0.10227206510676512" transform="matrix(1.6666890589332652,0.5335237397081286,-0.5335237397081286,1.6666890589332652,389.58482102740487,-629.3208204309333)" fill="none" stroke="#00a19d" filter="url(#bbburst-blur-4)"></use><use xlink:href="#bbburst-shape-10" width="41.47536343992854" opacity="0.4328760066944468" transform="matrix(0.9842083088619286,0.17701413719571282,-0.17701413719571282,0.9842083088619286,702.2266069449397,-38.71916065228311)" fill="none" stroke="#ffa6d5" filter="url(#bbburst-blur-2)"></use><use xlink:href="#bbburst-shape-10" width="24.639582797116148" opacity="0.7458842609134486" transform="matrix(0.9976348465342203,0.0687365476340111,-0.0687365476340111,0.9976348465342203,384.0277820343763,-109.92096141424031)" fill="none" stroke="#2c2891" filter="url(#bbburst-blur-1)"></use><use xlink:href="#bbburst-shape-8" width="36.66357985796897" opacity="0.31576532872815566" transform="matrix(1.2381849964519485,0.17145820062420003,-0.17145820062420003,1.2381849964519485,257.55150755275235,145.1733194626088)" fill="none" stroke="#ffa6d5" filter="url(#bbburst-blur-3)"></use><use xlink:href="#bbburst-shape-10" width="32.358847704616224" opacity="0.0794972242192239" transform="matrix(1.4067791100253906,-1.0408998681891406,1.0408998681891406,1.4067791100253906,-243.16678496448074,214.6133555683632)" fill="none" stroke="#ff5c58" filter="url(#bbburst-blur-4)"></use><use xlink:href="#bbburst-shape-10" width="30.784855654164232" opacity="0.43696977296704687" transform="matrix(0.9973313974456084,0.07300742201440844,-0.07300742201440844,0.9973313974456084,323.4833775184115,236.64327728152915)" fill="none" stroke="#2c2891" filter="url(#bbburst-blur-2)"></use><use xlink:href="#bbburst-shape-8" width="17.862828107170127" opacity="0.7849017965389828" transform="matrix(0.9847174145756237,0.17415973539110363,-0.17415973539110363,0.9847174145756237,381.773158187842,-51.23640801862928)" fill="none" stroke="#00a19d"></use><use xlink:href="#bbburst-shape-10" width="29.679303058944353" opacity="0.5607679730355734" transform="matrix(0.9173167676952596,-0.39815819432120325,0.39815819432120325,0.9173167676952596,292.1342855411001,225.63909407081763)" fill="none" stroke="#ffbd9b" filter="url(#bbburst-blur-1)"></use><use xlink:href="#bbburst-shape-8" width="14.86818652595896" opacity="0.8481352052971396" transform="matrix(0.9885757134056505,-0.1507251102653736,0.1507251102653736,0.9885757134056505,310.3652399461678,-59.01245722049117)" fill="none" stroke="#2c2891"></use><use xlink:href="#bbburst-shape-10" width="46.51755405672224" opacity="-0.08232291223308374" transform="matrix(1.6619057248333553,-0.5482420649367579,0.5482420649367579,1.6619057248333553,-203.58130461600305,91.14023508619744)" fill="none" stroke="#ffa6d5" filter="url(#bbburst-blur-4)"></use><use xlink:href="#bbburst-shape-14" width="34.85683531004" opacity="0.49293324575640596" transform="matrix(0.9946034065244518,0.10375000592749911,-0.10375000592749911,0.9946034065244518,613.1704515206175,-127.43647167463047)" fill="none" stroke="#ffa6d5" filter="url(#bbburst-blur-2)"></use><use xlink:href="#bbburst-shape-1" width="19.098935370945984" opacity="0.8139831071178552" transform="matrix(0.9680587257897918,-0.2507235597670164,0.2507235597670164,0.9680587257897918,358.2324886258668,-33.95335275162637)" fill="#2c2891"></use><use xlink:href="#bbburst-shape-14" width="29.03451306818928" opacity="0.34905016936497035" transform="matrix(0.9534495712117049,0.3015525081245652,-0.3015525081245652,0.9534495712117049,795.3460525325557,64.56917150876541)" fill="none" stroke="#ff5c58" filter="url(#bbburst-blur-2)"></use><use xlink:href="#bbburst-shape-1" width="18.20353702244964" opacity="0.902839313756937" transform="matrix(0.8314547572356465,0.5555924645549217,-0.5555924645549217,0.8314547572356465,577.6605017789442,39.079358485177295)" fill="#00a19d"></use><use xlink:href="#bbburst-shape-1" width="21.92527884931769" opacity="0.6735253745165264" transform="matrix(0.8200345953825227,-0.5723139543780339,0.5723139543780339,0.8200345953825227,58.74685643426761,-26.12709731363026)" fill="#ffa6d5" filter="url(#bbburst-blur-1)"></use><use xlink:href="#bbburst-shape-8" width="15.748158271231784" opacity="0.8580726857635829" transform="matrix(0.9160403295732981,-0.40108616854142887,0.40108616854142887,0.9160403295732981,177.68938136655188,69.77189666041363)" fill="none" stroke="#ffa6d5"></use><use xlink:href="#bbburst-shape-14" width="53.30172004444072" opacity="0.19455505966792586" transform="matrix(1.0145197671772601,-0.7302394415577661,0.7302394415577661,1.0145197671772601,-170.42815449675848,-247.41462336911962)" fill="none" stroke="#00a19d" filter="url(#bbburst-blur-3)"></use><use xlink:href="#bbburst-shape-10" width="40.619327655155274" opacity="0.22702958951761198" transform="matrix(1.2494587965047628,-0.03677928543175161,0.03677928543175161,1.2494587965047628,277.9810358136189,-437.0863059805185)" fill="none" stroke="#00a19d" filter="url(#bbburst-blur-3)"></use><use xlink:href="#bbburst-shape-13" width="47.788857685920505" opacity="0.2100376448265282" transform="matrix(1.2482590122983939,-0.065950270779111,0.065950270779111,1.2482590122983939,598.8770527100112,149.86171983115992)" fill="none" stroke="#2c2891" filter="url(#bbburst-blur-3)"></use><use xlink:href="#bbburst-shape-8" width="45.64424162014589" opacity="0.17122861579339121" transform="matrix(1.0444917692725488,-0.6866854767081512,0.6866854767081512,1.0444917692725488,453.881448363638,119.97581951508272)" fill="none" stroke="#ffa6d5" filter="url(#bbburst-blur-3)"></use><use xlink:href="#bbburst-shape-1" width="43.209366352477836" opacity="-0.07991664809716337" transform="matrix(1.3407573484552233,1.1246642754899434,-1.1246642754899434,1.3407573484552233,1167.563877319751,-501.02535820582375)" fill="#00a19d" filter="url(#bbburst-blur-4)"></use><use xlink:href="#bbburst-shape-10" width="17.587719153171744" opacity="0.8473523745629078" transform="matrix(0.9297200719130189,0.368267006236034,-0.368267006236034,0.9297200719130189,585.6886680053127,75.37987034567857)" fill="none" stroke="#2c2891"></use><use xlink:href="#bbburst-shape-10" width="25.089172515931494" opacity="0.4432746371129491" transform="matrix(0.7133106380959248,-0.7008480103269071,0.7008480103269071,0.7133106380959248,231.08114753141564,-96.24788720445449)" fill="none" stroke="#ffbd9b" filter="url(#bbburst-blur-2)"></use><use xlink:href="#bbburst-shape-10" width="37.51591290865778" opacity="0.12516118377677887" transform="matrix(1.2154900692989576,-0.29169143188584645,0.29169143188584645,1.2154900692989576,-12.673108512170614,202.7285995303016)" fill="none" stroke="#2c2891" filter="url(#bbburst-blur-3)"></use><use xlink:href="#bbburst-shape-8" width="22.707418639554447" opacity="0.746960447907582" transform="matrix(0.9806866879336337,0.19558532692858072,-0.19558532692858072,0.9806866879336337,365.57503216746545,57.06647216116994)" fill="none" stroke="#ffa6d5" filter="url(#bbburst-blur-1)"></use><use xlink:href="#bbburst-shape-10" width="38.68976178319825" opacity="0.32508332208902246" transform="matrix(1.1540523245775813,-0.4802741218690436,0.4802741218690436,1.1540523245775813,379.5488000495567,-286.02153247905187)" fill="none" stroke="#2c2891" filter="url(#bbburst-blur-3)"></use><use xlink:href="#bbburst-shape-13" width="20.48589837670844" opacity="0.6599195702041581" transform="matrix(0.9984184648943443,0.05621893771693908,-0.05621893771693908,0.9984184648943443,407.56671597102115,153.02095106346508)" fill="none" stroke="#ffbd9b" filter="url(#bbburst-blur-1)"></use><use xlink:href="#bbburst-shape-14" width="40.084734775008535" opacity="0.300735447338046" transform="matrix(1.226030204188703,0.24361842790931765,-0.24361842790931765,1.226030204188703,169.41434446590688,-11.943639947562588)" fill="none" stroke="#00a19d" filter="url(#bbburst-blur-3)"></use><use xlink:href="#bbburst-shape-14" width="28.487715809354906" opacity="0.4328209571899916" transform="matrix(0.922541008417831,-0.38589906424790854,0.38589906424790854,0.922541008417831,392.84634476441465,235.10181637935023)" fill="none" stroke="#ffbd9b" filter="url(#bbburst-blur-2)"></use><use xlink:href="#bbburst-shape-1" width="38.889456534373835" opacity="0.2126203781164102" transform="matrix(1.2014088473365305,0.34513299109402595,-0.34513299109402595,1.2014088473365305,857.732130356705,-175.84237110441285)" fill="#ff5c58" filter="url(#bbburst-blur-3)"></use><use xlink:href="#bbburst-shape-14" width="32.131167873788684" opacity="0.0867902255054398" transform="matrix(1.6221081413693563,0.6567078328322665,-0.6567078328322665,1.6221081413693563,994.7740236769505,-460.77476830652137)" fill="none" stroke="#2c2891" filter="url(#bbburst-blur-4)"></use><use xlink:href="#bbburst-shape-13" width="42.90826603354465" opacity="0.4361238048456345" transform="matrix(0.9008643930837407,0.43410061653246196,-0.43410061653246196,0.9008643930837407,301.5238156156174,8.345335363036895)" fill="none" stroke="#00a19d" filter="url(#bbburst-blur-2)"></use><use xlink:href="#bbburst-shape-1" width="39.35391376111609" opacity="0.47577112693952683" transform="matrix(0.8248662481813273,-0.565327933690934,0.565327933690934,0.8248662481813273,-62.771875831607105,165.2256912572529)" fill="#ffa6d5" filter="url(#bbburst-blur-2)"></use><use xlink:href="#bbburst-shape-10" width="34.53076541780826" opacity="0.18054243569934414" transform="matrix(0.9678650301025138,-0.7910355766365127,0.7910355766365127,0.9678650301025138,149.03774691259486,385.99759939769376)" fill="none" stroke="#00a19d" filter="url(#bbburst-blur-3)"></use><use xlink:href="#bbburst-shape-14" width="29.63421191940025" opacity="0.7374454225642617" transform="matrix(0.9518526466936945,0.30655593124617353,-0.30655593124617353,0.9518526466936945,555.3626496445954,-93.70630251226419)" fill="none" stroke="#2c2891" filter="url(#bbburst-blur-1)"></use><use xlink:href="#bbburst-shape-10" width="17.62232323732399" opacity="0.7425955703929665" transform="matrix(0.7994637578894627,-0.6007143246346458,0.6007143246346458,0.7994637578894627,237.3466722739858,164.54496938551972)" fill="none" stroke="#ff5c58" filter="url(#bbburst-blur-1)"></use><use xlink:href="#bbburst-shape-14" width="38.99451659338988" opacity="0.19759210501047042" transform="matrix(1.1835471406004285,-0.40213948572174524,0.40213948572174524,1.1835471406004285,233.9947601884972,-426.15522221032626)" fill="none" stroke="#2c2891" filter="url(#bbburst-blur-3)"></use><use xlink:href="#bbburst-shape-10" width="21.994876587146063" opacity="0.7132812198834173" transform="matrix(0.8084285424647999,0.5885943354537481,-0.5885943354537481,0.8084285424647999,499.0319393825613,50.484774486236404)" fill="none" stroke="#00a19d" filter="url(#bbburst-blur-1)"></use><use xlink:href="#bbburst-shape-8" width="36.70733785224634" opacity="0.3446515165767965" transform="matrix(0.9505213222917035,0.3106593244517724,-0.3106593244517724,0.9505213222917035,250.9197932367019,-132.49142900285713)" fill="none" stroke="#ff5c58" filter="url(#bbburst-blur-2)"></use><use xlink:href="#bbburst-shape-14" width="47.17426286549288" opacity="0.36766935492101827" transform="matrix(0.7672963554073091,0.6412926812140151,-0.6412926812140151,0.7672963554073091,493.7807521544491,-167.0666844760939)" fill="none" stroke="#ff5c58" filter="url(#bbburst-blur-2)"></use><use xlink:href="#bbburst-shape-8" width="19.399756428443276" opacity="0.7513152008313088" transform="matrix(0.9993943319524573,-0.03479898362454933,0.03479898362454933,0.9993943319524573,486.6876859160955,-18.31617917578592)" fill="none" stroke="#00a19d" filter="url(#bbburst-blur-1)"></use><use xlink:href="#bbburst-shape-13" width="24.825403441633185" opacity="0.7301946251775602" transform="matrix(0.8651873156393259,-0.5014488098069607,0.5014488098069607,0.8651873156393259,232.97027593600336,173.19563738906618)" fill="none" stroke="#ffa6d5" filter="url(#bbburst-blur-1)"></use><use xlink:href="#bbburst-shape-1" width="35.78023099112252" opacity="0.5528402446823124" transform="matrix(0.9997182932674757,-0.023734660443438117,0.023734660443438117,0.9997182932674757,538.660623922523,114.25608618862327)" fill="#ff5c58" filter="url(#bbburst-blur-2)"></use><use xlink:href="#bbburst-shape-1" width="28.090797605965996" opacity="0.5944524534077916" transform="matrix(0.9999070048171261,0.013637511416815871,-0.013637511416815871,0.9999070048171261,566.9914309671736,-49.87999714005065)" fill="#ff5c58" filter="url(#bbburst-blur-1)"></use><use xlink:href="#bbburst-shape-13" width="28.467433194490347" opacity="0.19942141466975893" transform="matrix(1.2499849383817145,0.006136270761744677,-0.006136270761744677,1.2499849383817145,744.8896201195834,-95.1801331544658)" fill="none" stroke="#ffbd9b" filter="url(#bbburst-blur-3)"></use><use xlink:href="#bbburst-shape-13" width="21.524438400634672" opacity="0.8118707756575699" transform="matrix(0.9676985368745702,0.252110177761264,-0.252110177761264,0.9676985368745702,572.5855890188429,30.63721472793793)" fill="none" stroke="#00a19d"></use><use xlink:href="#bbburst-shape-14" width="45.016785789781515" opacity="0.10155174176254034" transform="matrix(1.7497015546258232,-0.03231825706899389,0.03231825706899389,1.7497015546258232,-4.202923952891126,-498.1197512702734)" fill="none" stroke="#ffa6d5" filter="url(#bbburst-blur-4)"></use><use xlink:href="#bbburst-shape-10" width="47.034937720447424" opacity="0.3581058708269683" transform="matrix(0.9041287332745863,0.42726014752992353,-0.42726014752992353,0.9041287332745863,799.2358736018972,173.69029906100792)" fill="none" stroke="#2c2891" filter="url(#bbburst-blur-2)"></use><use xlink:href="#bbburst-shape-13" width="22.356003934825456" opacity="0.6880937283380155" transform="matrix(0.9983542231167275,0.057348454076770236,-0.057348454076770236,0.9983542231167275,540.340846475784,56.34106612886217)" fill="none" stroke="#2c2891" filter="url(#bbburst-blur-1)"></use><use xlink:href="#bbburst-shape-14" width="12.284989513329299" opacity="0.9421384181587887" transform="matrix(0.9838209756371691,-0.17915436890103656,0.17915436890103656,0.9838209756371691,339.87810161746677,26.795329688625998)" fill="none" stroke="#ffa6d5"></use><use xlink:href="#bbburst-shape-14" width="42.66758775063346" opacity="0.14538497141053663" transform="matrix(1.200734717213321,0.34747106192983335,-0.34747106192983335,1.200734717213321,790.8614930815107,-353.8852574867688)" fill="none" stroke="#2c2891" filter="url(#bbburst-blur-3)"></use><use xlink:href="#bbburst-shape-10" width="28.707199234795834" opacity="0.2545298546591931" transform="matrix(1.0611472511201328,0.6606561219274261,-0.6606561219274261,1.0611472511201328,527.1074590924793,278.57881998906055)" fill="none" stroke="#ff5c58" filter="url(#bbburst-blur-3)"></use><use xlink:href="#bbburst-shape-10" width="49.752477809272904" opacity="-0.06237376256760285" transform="matrix(1.7386117413274271,-0.1993218826883097,0.1993218826883097,1.7386117413274271,-60.782559593792485,-628.7730000943304)" fill="none" stroke="#ffa6d5" filter="url(#bbburst-blur-4)"></use><use xlink:href="#bbburst-shape-10" width="22.074324058123693" opacity="0.6244197400124591" transform="matrix(0.9988991214481524,0.04690996877113916,-0.04690996877113916,0.9988991214481524,271.9423904338698,100.5408963250776)" fill="none" stroke="#ff5c58" filter="url(#bbburst-blur-1)"></use><use xlink:href="#bbburst-shape-8" width="40.12705005487353" opacity="0.3773882047980267" transform="matrix(0.9930906129996213,0.11735005058386791,-0.11735005058386791,0.9930906129996213,470.14405629380104,-276.42656846393515)" fill="none" stroke="#2c2891" filter="url(#bbburst-blur-2)"></use><use xlink:href="#bbburst-shape-10" width="18.355472276376485" opacity="0.8677345882585145" transform="matrix(0.9768567231838751,0.2138946992575136,-0.2138946992575136,0.9768567231838751,483.2116283789342,66.4444777362325)" fill="none" stroke="#2c2891"></use><use xlink:href="#bbburst-shape-13" width="40.819008990010275" opacity="0.49329621840936877" transform="matrix(0.8988773909205274,0.4382002237469822,-0.4382002237469822,0.8988773909205274,389.5883808959274,-123.37148158810544)" fill="none" stroke="#00a19d" filter="url(#bbburst-blur-2)"></use><use xlink:href="#bbburst-shape-14" width="28.137144662561695" opacity="0.6117816115568051" transform="matrix(0.9988065735907967,-0.04884084921264588,0.04884084921264588,0.9988065735907967,193.57317042228533,26.611499843485717)" fill="none" stroke="#00a19d" filter="url(#bbburst-blur-1)"></use><use xlink:href="#bbburst-shape-8" width="25.18877187601115" opacity="0.5800146589151413" transform="matrix(0.9663497503271854,0.25723172440930836,-0.25723172440930836,0.9663497503271854,401.91575754714006,177.04949813796668)" fill="none" stroke="#00a19d" filter="url(#bbburst-blur-1)"></use><use xlink:href="#bbburst-shape-10" width="14.277078400276629" opacity="0.8955443098997513" transform="matrix(0.9326635721439142,-0.3607473647800546,0.3607473647800546,0.9326635721439142,295.3721896019798,21.56626865790281)" fill="none" stroke="#00a19d"></use><use xlink:href="#bbburst-shape-8" width="43.41397678263245" opacity="0.07181953932753005" transform="matrix(1.4861018890395876,0.9241218401233514,-0.9241218401233514,1.4861018890395876,959.320910876598,-568.342762069983)" fill="none" stroke="#2c2891" filter="url(#bbburst-blur-4)"></use><use xlink:href="#bbburst-shape-1" width="18.532530701478194" opacity="0.6902676256320497" transform="matrix(0.9762782940649409,0.21651949689958366,-0.21651949689958366,0.9762782940649409,593.4618540501672,-69.90583291588024)" fill="#00a19d" filter="url(#bbburst-blur-1)"></use><use xlink:href="#bbburst-shape-14" width="45.847028909137144" opacity="0.06488334600481416" transform="matrix(1.5339641162420112,-0.8422909770868172,0.8422909770868172,1.5339641162420112,379.94528680580356,36.44621275618363)" fill="none" stroke="#2c2891" filter="url(#bbburst-blur-4)"></use><use xlink:href="#bbburst-shape-8" width="35.78092210574259" opacity="0.3334496047626371" transform="matrix(0.9932085875275879,-0.11634733199112839,0.11634733199112839,0.9932085875275879,328.36410674795786,304.6562202671604)" fill="none" stroke="#2c2891" filter="url(#bbburst-blur-2)"></use><use xlink:href="#bbburst-shape-8" width="43.94875699241337" opacity="-0.07507526165745082" transform="matrix(1.7497097032805118,-0.03187403717798159,0.03187403717798159,1.7497097032805118,688.4162846901564,45.35778217570919)" fill="none" stroke="#ffbd9b" filter="url(#bbburst-blur-4)"></use><use xlink:href="#bbburst-shape-10" width="28.16208454528057" opacity="0.5603887693682399" transform="matrix(0.9029203113250023,-0.42980799363990546,0.42980799363990546,0.9029203113250023,266.093082424055,-146.32576655660455)" fill="none" stroke="#00a19d" filter="url(#bbburst-blur-1)"></use><use xlink:href="#bbburst-shape-10" width="27.07603085390693" opacity="0.4710956420565222" transform="matrix(0.96799136697487,-0.25098349240960555,0.25098349240960555,0.96799136697487,112.74293742291273,178.85158039117948)" fill="none" stroke="#ffbd9b" filter="url(#bbburst-blur-2)"></use><use xlink:href="#bbburst-shape-8" width="14.729007918154235" opacity="0.9541775017447" transform="matrix(0.9733526142084145,-0.22931351554944496,0.22931351554944496,0.9733526142084145,305.4048381966683,-7.819378887265827)" fill="none" stroke="#ffa6d5"></use><use xlink:href="#bbburst-shape-14" width="22.735326318549582" opacity="0.6462745274044115" transform="matrix(0.9273444145782691,-0.374208947982925,0.374208947982925,0.9273444145782691,237.42323865109648,-125.81432802237151)" fill="none" stroke="#00a19d" filter="url(#bbburst-blur-1)"></use><use xlink:href="#bbburst-shape-10" width="15.04707638162654" opacity="0.8202872782976025" transform="matrix(0.754715274376645,0.6560524785583737,-0.6560524785583737,0.754715274376645,615.4096292362842,162.68803665044305)" fill="none" stroke="#2c2891"></use><use xlink:href="#bbburst-shape-8" width="16.091184191301785" opacity="0.8290912899904883" transform="matrix(0.9901526506995765,-0.13999188659562556,0.13999188659562556,0.9901526506995765,259.1421797291949,3.586067254542911)" fill="none" stroke="#00a19d"></use><use xlink:href="#bbburst-shape-8" width="33.69381751236773" opacity="0.5175030607539703" transform="matrix(0.9781762226786163,0.2077769895493581,-0.2077769895493581,0.9781762226786163,677.964647225033,55.038678630293475)" fill="none" stroke="#ffa6d5" filter="url(#bbburst-blur-2)"></use><use xlink:href="#bbburst-shape-8" width="36.01256013516375" opacity="0.18662529285502205" transform="matrix(1.1660638292047263,0.45032782083767686,-0.45032782083767686,1.1660638292047263,195.46328907195726,-33.14849057114361)" fill="none" stroke="#00a19d" filter="url(#bbburst-blur-3)"></use><use xlink:href="#bbburst-shape-8" width="30.913360222006993" opacity="0.17545306743169686" transform="matrix(1.0061018128662549,-0.7417945417345937,0.7417945417345937,1.0061018128662549,34.87397198868359,376.28691996827786)" fill="none" stroke="#2c2891" filter="url(#bbburst-blur-3)"></use><use xlink:href="#bbburst-shape-14" width="22.043070376596596" opacity="0.7109980343884195" transform="matrix(0.8056797511817616,-0.5923513640869705,0.5923513640869705,0.8056797511817616,91.09752928697168,197.9981700199396)" fill="none" stroke="#2c2891" filter="url(#bbburst-blur-1)"></use><use xlink:href="#bbburst-shape-1" width="41.66581468136522" opacity="0.07333353662471309" transform="matrix(1.7462729674427502,-0.1141521930524862,0.1141521930524862,1.7462729674427502,537.040270342943,58.7796831593073)" fill="#00a19d" filter="url(#bbburst-blur-4)"></use></svg>