<svg xmlns="http://www.w3.org/2000/svg" version="1.1" xmlns:xlink="http://www.w3.org/1999/xlink" xmlns:svgjs="http://svgjs.dev/svgjs" viewBox="0 0 800 800" opacity="0.37" width="800" height="800"><g stroke-width="4" stroke="hsl(261, 60%, 38%)" fill="none"><circle r="4.921052631578947" cx="0" cy="0" fill="hsl(261, 60%, 38%)" stroke="none"></circle><circle r="4.921052631578947" cx="114.28571428571429" cy="0" fill="hsl(261, 60%, 38%)" stroke="none"></circle><circle r="4.921052631578947" cx="228.57142857142858" cy="0" fill="hsl(261, 60%, 38%)" stroke="none"></circle><circle r="4.921052631578947" cx="342.8571428571429" cy="0" fill="hsl(261, 60%, 38%)" stroke="none"></circle><circle r="4.921052631578947" cx="457.14285714285717" cy="0" fill="hsl(261, 60%, 38%)" stroke="none"></circle><circle r="4.921052631578947" cx="571.4285714285714" cy="0" fill="hsl(261, 60%, 38%)" stroke="none"></circle><circle r="4.921052631578947" cx="685.7142857142858" cy="0" fill="hsl(261, 60%, 38%)" stroke="none"></circle><circle r="4.921052631578947" cx="800.0000000000001" cy="0" fill="hsl(261, 60%, 38%)" stroke="none"></circle><circle r="4.921052631578947" cx="0" cy="80" fill="hsl(261, 60%, 38%)" stroke="none"></circle><circle r="4.921052631578947" cx="114.28571428571429" cy="80" fill="hsl(261, 60%, 38%)" stroke="none"></circle><circle r="4.921052631578947" cx="228.57142857142858" cy="80" fill="hsl(261, 60%, 38%)" stroke="none"></circle><circle r="4.921052631578947" cx="342.8571428571429" cy="80" fill="hsl(261, 60%, 38%)" stroke="none"></circle><circle r="4.921052631578947" cx="457.14285714285717" cy="80" fill="hsl(261, 60%, 38%)" stroke="none"></circle><circle r="4.921052631578947" cx="571.4285714285714" cy="80" fill="hsl(261, 60%, 38%)" stroke="none"></circle><circle r="4.921052631578947" cx="685.7142857142858" cy="80" fill="hsl(261, 60%, 38%)" stroke="none"></circle><circle r="4.921052631578947" cx="800.0000000000001" cy="80" fill="hsl(261, 60%, 38%)" stroke="none"></circle><circle r="4.921052631578947" cx="0" cy="160" fill="hsl(261, 60%, 38%)" stroke="none"></circle><circle r="4.921052631578947" cx="114.28571428571429" cy="160" fill="hsl(261, 60%, 38%)" stroke="none"></circle><circle r="4.921052631578947" cx="228.57142857142858" cy="160" fill="hsl(261, 60%, 38%)" stroke="none"></circle><circle r="4.921052631578947" cx="342.8571428571429" cy="160" fill="hsl(261, 60%, 38%)" stroke="none"></circle><circle r="4.921052631578947" cx="457.14285714285717" cy="160" fill="hsl(261, 60%, 38%)" stroke="none"></circle><circle r="4.921052631578947" cx="571.4285714285714" cy="160" fill="hsl(261, 60%, 38%)" stroke="none"></circle><circle r="4.921052631578947" cx="685.7142857142858" cy="160" fill="hsl(261, 60%, 38%)" stroke="none"></circle><circle r="4.921052631578947" cx="800.0000000000001" cy="160" fill="hsl(261, 60%, 38%)" stroke="none"></circle><circle r="4.921052631578947" cx="0" cy="240" fill="hsl(261, 60%, 38%)" stroke="none"></circle><circle r="4.921052631578947" cx="114.28571428571429" cy="240" fill="hsl(261, 60%, 38%)" stroke="none"></circle><circle r="4.921052631578947" cx="228.57142857142858" cy="240" fill="hsl(261, 60%, 38%)" stroke="none"></circle><circle r="4.921052631578947" cx="342.8571428571429" cy="240" fill="hsl(261, 60%, 38%)" stroke="none"></circle><circle r="4.921052631578947" cx="457.14285714285717" cy="240" fill="hsl(261, 60%, 38%)" stroke="none"></circle><circle r="4.921052631578947" cx="571.4285714285714" cy="240" fill="hsl(261, 60%, 38%)" stroke="none"></circle><circle r="4.921052631578947" cx="685.7142857142858" cy="240" fill="hsl(261, 60%, 38%)" stroke="none"></circle><circle r="4.921052631578947" cx="800.0000000000001" cy="240" fill="hsl(261, 60%, 38%)" stroke="none"></circle><circle r="4.921052631578947" cx="0" cy="320" fill="hsl(261, 60%, 38%)" stroke="none"></circle><circle r="4.921052631578947" cx="114.28571428571429" cy="320" fill="hsl(261, 60%, 38%)" stroke="none"></circle><circle r="4.921052631578947" cx="228.57142857142858" cy="320" fill="hsl(261, 60%, 38%)" stroke="none"></circle><circle r="4.921052631578947" cx="342.8571428571429" cy="320" fill="hsl(261, 60%, 38%)" stroke="none"></circle><circle r="4.921052631578947" cx="457.14285714285717" cy="320" fill="hsl(261, 60%, 38%)" stroke="none"></circle><circle r="4.921052631578947" cx="571.4285714285714" cy="320" fill="hsl(261, 60%, 38%)" stroke="none"></circle><circle r="4.921052631578947" cx="685.7142857142858" cy="320" fill="hsl(261, 60%, 38%)" stroke="none"></circle><circle r="4.921052631578947" cx="800.0000000000001" cy="320" fill="hsl(261, 60%, 38%)" stroke="none"></circle><circle r="4.921052631578947" cx="0" cy="400" fill="hsl(261, 60%, 38%)" stroke="none"></circle><circle r="4.921052631578947" cx="114.28571428571429" cy="400" fill="hsl(261, 60%, 38%)" stroke="none"></circle><circle r="4.921052631578947" cx="228.57142857142858" cy="400" fill="hsl(261, 60%, 38%)" stroke="none"></circle><circle r="4.921052631578947" cx="342.8571428571429" cy="400" fill="hsl(261, 60%, 38%)" stroke="none"></circle><circle r="4.921052631578947" cx="457.14285714285717" cy="400" fill="hsl(261, 60%, 38%)" stroke="none"></circle><circle r="4.921052631578947" cx="571.4285714285714" cy="400" fill="hsl(261, 60%, 38%)" stroke="none"></circle><circle r="4.921052631578947" cx="685.7142857142858" cy="400" fill="hsl(261, 60%, 38%)" stroke="none"></circle><circle r="4.921052631578947" cx="800.0000000000001" cy="400" fill="hsl(261, 60%, 38%)" stroke="none"></circle><circle r="4.921052631578947" cx="0" cy="480" fill="hsl(261, 60%, 38%)" stroke="none"></circle><circle r="4.921052631578947" cx="114.28571428571429" cy="480" fill="hsl(261, 60%, 38%)" stroke="none"></circle><circle r="4.921052631578947" cx="228.57142857142858" cy="480" fill="hsl(261, 60%, 38%)" stroke="none"></circle><circle r="4.921052631578947" cx="342.8571428571429" cy="480" fill="hsl(261, 60%, 38%)" stroke="none"></circle><circle r="4.921052631578947" cx="457.14285714285717" cy="480" fill="hsl(261, 60%, 38%)" stroke="none"></circle><circle r="4.921052631578947" cx="571.4285714285714" cy="480" fill="hsl(261, 60%, 38%)" stroke="none"></circle><circle r="4.921052631578947" cx="685.7142857142858" cy="480" fill="hsl(261, 60%, 38%)" stroke="none"></circle><circle r="4.921052631578947" cx="800.0000000000001" cy="480" fill="hsl(261, 60%, 38%)" stroke="none"></circle><circle r="4.921052631578947" cx="0" cy="560" fill="hsl(261, 60%, 38%)" stroke="none"></circle><circle r="4.921052631578947" cx="114.28571428571429" cy="560" fill="hsl(261, 60%, 38%)" stroke="none"></circle><circle r="4.921052631578947" cx="228.57142857142858" cy="560" fill="hsl(261, 60%, 38%)" stroke="none"></circle><circle r="4.921052631578947" cx="342.8571428571429" cy="560" fill="hsl(261, 60%, 38%)" stroke="none"></circle><circle r="4.921052631578947" cx="457.14285714285717" cy="560" fill="hsl(261, 60%, 38%)" stroke="none"></circle><circle r="4.921052631578947" cx="571.4285714285714" cy="560" fill="hsl(261, 60%, 38%)" stroke="none"></circle><circle r="4.921052631578947" cx="685.7142857142858" cy="560" fill="hsl(261, 60%, 38%)" stroke="none"></circle><circle r="4.921052631578947" cx="800.0000000000001" cy="560" fill="hsl(261, 60%, 38%)" stroke="none"></circle><circle r="4.921052631578947" cx="0" cy="640" fill="hsl(261, 60%, 38%)" stroke="none"></circle><circle r="4.921052631578947" cx="114.28571428571429" cy="640" fill="hsl(261, 60%, 38%)" stroke="none"></circle><circle r="4.921052631578947" cx="228.57142857142858" cy="640" fill="hsl(261, 60%, 38%)" stroke="none"></circle><circle r="4.921052631578947" cx="342.8571428571429" cy="640" fill="hsl(261, 60%, 38%)" stroke="none"></circle><circle r="4.921052631578947" cx="457.14285714285717" cy="640" fill="hsl(261, 60%, 38%)" stroke="none"></circle><circle r="4.921052631578947" cx="571.4285714285714" cy="640" fill="hsl(261, 60%, 38%)" stroke="none"></circle><circle r="4.921052631578947" cx="685.7142857142858" cy="640" fill="hsl(261, 60%, 38%)" stroke="none"></circle><circle r="4.921052631578947" cx="800.0000000000001" cy="640" fill="hsl(261, 60%, 38%)" stroke="none"></circle><circle r="4.921052631578947" cx="0" cy="720" fill="hsl(261, 60%, 38%)" stroke="none"></circle><circle r="4.921052631578947" cx="114.28571428571429" cy="720" fill="hsl(261, 60%, 38%)" stroke="none"></circle><circle r="4.921052631578947" cx="228.57142857142858" cy="720" fill="hsl(261, 60%, 38%)" stroke="none"></circle><circle r="4.921052631578947" cx="342.8571428571429" cy="720" fill="hsl(261, 60%, 38%)" stroke="none"></circle><circle r="4.921052631578947" cx="457.14285714285717" cy="720" fill="hsl(261, 60%, 38%)" stroke="none"></circle><circle r="4.921052631578947" cx="571.4285714285714" cy="720" fill="hsl(261, 60%, 38%)" stroke="none"></circle><circle r="4.921052631578947" cx="685.7142857142858" cy="720" fill="hsl(261, 60%, 38%)" stroke="none"></circle><circle r="4.921052631578947" cx="800.0000000000001" cy="720" fill="hsl(261, 60%, 38%)" stroke="none"></circle><circle r="4.921052631578947" cx="0" cy="800" fill="hsl(261, 60%, 38%)" stroke="none"></circle><circle r="4.921052631578947" cx="114.28571428571429" cy="800" fill="hsl(261, 60%, 38%)" stroke="none"></circle><circle r="4.921052631578947" cx="228.57142857142858" cy="800" fill="hsl(261, 60%, 38%)" stroke="none"></circle><circle r="4.921052631578947" cx="342.8571428571429" cy="800" fill="hsl(261, 60%, 38%)" stroke="none"></circle><circle r="4.921052631578947" cx="457.14285714285717" cy="800" fill="hsl(261, 60%, 38%)" stroke="none"></circle><circle r="4.921052631578947" cx="571.4285714285714" cy="800" fill="hsl(261, 60%, 38%)" stroke="none"></circle><circle r="4.921052631578947" cx="685.7142857142858" cy="800" fill="hsl(261, 60%, 38%)" stroke="none"></circle><circle r="4.921052631578947" cx="800.0000000000001" cy="800" fill="hsl(261, 60%, 38%)" stroke="none"></circle></g></svg>