<?xml version="1.0" encoding="utf-8"?><!--Generator: Adobe Illustrator 24.0.1, SVG Export Plug-In . SVG Version: 6.00 Build 0)--><svg version="1.1" id="圖層_1" xmlns="http://www.w3.org/2000/svg" xmlns:xlink="http://www.w3.org/1999/xlink" x="0px" y="0px" viewBox="0 0 100 100" enable-background="new 0 0 100 100" xml:space="preserve"><g><path fill="#F5E169" stroke="#333435" stroke-width="3.5" stroke-linecap="round" stroke-linejoin="round" stroke-miterlimit="10" d=" M83,25H50v-3c0-3.866028-3.134033-7-7-7H17c-3.865967,0-7,3.133972-7,7v3v53c0,3.865967,3.134033,7,7,7h66 c3.865967,0,7-3.134033,7-7V32C90,28.133972,86.865967,25,83,25z"/><path fill="#F7B26A" stroke="#333435" stroke-width="3.5" stroke-linecap="round" stroke-linejoin="round" stroke-miterlimit="10" d=" M83,85H17c-3.865993,0-7-3.13401-7-7V42c0-3.865993,3.134007-7,7-7h66c3.86599,0,7,3.134007,7,7v36C90,81.86599,86.86599,85,83,85z "/></g><path fill="#ACBD81" stroke="#333435" stroke-width="3.5" stroke-linecap="round" stroke-miterlimit="10" d="M64.475098,62.475098 c-1.367188,1.366211-3.583008,1.366211-4.950195,0L53.5,56.450195V73c0,1.933105-1.566895,3.5-3.5,3.5s-3.5-1.566895-3.5-3.5 V56.450195l-6.024902,6.024902c-1.367188,1.366211-3.583008,1.366211-4.950195,0c-1.366699-1.367188-1.366699-3.583008,0-4.950195 l12-12c0.011902-0.011902,0.026245-0.019531,0.038269-0.03125c0.152893-0.148682,0.317322-0.285278,0.495239-0.404236 c0.086853-0.058044,0.18103-0.097961,0.271667-0.147461c0.109619-0.060059,0.215027-0.126099,0.33136-0.174316 c0.114624-0.047424,0.234314-0.074707,0.352417-0.109375c0.100525-0.029724,0.196838-0.068481,0.300903-0.089172 C49.540894,44.524109,49.770325,44.5,50,44.5s0.459106,0.024109,0.685242,0.069092 c0.104065,0.020691,0.200378,0.059448,0.300903,0.089172c0.118103,0.034668,0.237793,0.061951,0.352417,0.109375 c0.116333,0.048218,0.221741,0.114258,0.33136,0.174316c0.090637,0.0495,0.184814,0.089417,0.271667,0.147461 c0.177917,0.118958,0.342346,0.255554,0.495239,0.404236c0.012024,0.011719,0.026367,0.019348,0.038269,0.03125l12,12 C65.841797,58.89209,65.841797,61.10791,64.475098,62.475098z"/><metadata xmlns:d="https://loading.io/stock/">
<d:name>upload folder</d:name>
<d:tags>folder,file,business,document,papers,report,archives,record,upload</d:tags>
<d:license>by</d:license>
<d:slug>ff2v66</d:slug>
</metadata></svg>